mtllib cancel.mtl

# 36 vertex positions
v  9.34334 3.4007 1.32653
v  9.94298 -5.57946e-07 1.32653
v  9.94298 -2.41677e-07 -1.32653
v  9.34334 3.4007 -1.32653
v  7.61676 6.39122 1.32653
v  9.34334 -3.4007 1.32653
v  9.34334 -3.4007 -1.32653
v  7.61676 -6.39123 1.32653
v  7.61676 -6.39123 -1.32653
v  4.97148 -8.61087 1.32653
v  4.97148 -8.61087 -1.32653
v  1.72657 -9.79192 1.32653
v  1.72657 -9.79192 -1.32653
v  -1.72658 -9.79192 1.32653
v  -1.72658 -9.79192 -1.32653
v  7.61676 6.39122 -1.32653
v  4.97149 8.61087 1.32653
v  4.97149 8.61087 -1.32653
v  1.72658 9.79192 1.32653
v  1.72658 9.79192 -1.32653
v  -1.72658 9.79192 1.32653
v  -1.72658 9.79192 -1.32653
v  -4.97149 8.61087 1.32653
v  -4.97149 8.61087 -1.32653
v  -7.61676 6.39122 1.32653
v  -7.61676 6.39122 -1.32653
v  -9.34334 3.4007 1.32653
v  -9.34334 3.4007 -1.32653
v  -9.94298 9.43401e-07 1.32653
v  -9.94298 1.25967e-06 -1.32653
v  -9.34334 -3.4007 1.32653
v  -9.34334 -3.4007 -1.32653
v  -7.61676 -6.39122 1.32653
v  -7.61676 -6.39122 -1.32653
v  -4.97149 -8.61087 1.32653
v  -4.97149 -8.61087 -1.32653

# 76 UV coordinates
vt 0.618781 0.627297 0
vt 0.618781 0.539817 0
vt 0.685992 0.539817 0
vt 0.685992 0.627297 0
vt 0.618781 0.714778 0
vt 0.618781 0.452335 0
vt 0.685992 0.452336 0
vt 0.618781 0.364855 0
vt 0.685992 0.364855 0
vt 0.618781 0.277374 0
vt 0.685992 0.277374 0
vt 0.618781 0.189893 0
vt 0.685993 0.189893 0
vt 0.618781 0.102413 0
vt 0.685993 0.102413 0
vt 0.685992 0.714778 0
vt 0.618781 0.802259 0
vt 0.685992 0.802259 0
vt 0.618781 0.88974 0
vt 0.685992 0.88974 0
vt 0.722849 0.189632 0
vt 0.722849 0.102151 0
vt 0.790061 0.102151 0
vt 0.790061 0.189632 0
vt 0.722849 0.277113 0
vt 0.790061 0.277113 0
vt 0.722849 0.364594 0
vt 0.790061 0.364594 0
vt 0.722849 0.452074 0
vt 0.790061 0.452074 0
vt 0.722849 0.539555 0
vt 0.790061 0.539555 0
vt 0.722849 0.627036 0
vt 0.790061 0.627036 0
vt 0.722849 0.714516 0
vt 0.790061 0.714516 0
vt 0.72285 0.801998 0
vt 0.790061 0.801998 0
vt 0.72285 0.889478 0
vt 0.790061 0.889478 0
vt 0.391956 0.0345229 0
vt 0.45897 0.0907545 0
vt 0.50271 0.166515 0
vt 0.391956 0.470811 0
vt 0.0730507 0.414579 0
vt 0.0730507 0.0907545 0
vt 0.22227 0.00460275 0
vt 0.309751 0.00460275 0
vt 0.517901 0.252667 0
vt 0.50271 0.338819 0
vt 0.45897 0.414579 0
vt 0.309751 0.500731 0
vt 0.22227 0.500731 0
vt 0.140065 0.470811 0
vt 0.0293104 0.338818 0
vt 0.0141195 0.252667 0
vt 0.0293104 0.166515 0
vt 0.140065 0.0345229 0
vt 0.0748123 0.910375 0
vt 0.0310719 0.834614 0
vt 0.015881 0.748462 0
vt 0.224031 0.500399 0
vt 0.504472 0.662311 0
vt 0.393717 0.966606 0
vt 0.224032 0.996527 0
vt 0.141827 0.966606 0
vt 0.0310718 0.662311 0
vt 0.0748122 0.58655 0
vt 0.141826 0.530319 0
vt 0.311512 0.500399 0
vt 0.393717 0.530319 0
vt 0.460731 0.58655 0
vt 0.519663 0.748462 0
vt 0.504472 0.834614 0
vt 0.460731 0.910375 0
vt 0.311512 0.996526 0

# 61 vertex normals
vn 0.939693 0.34202 4.59034e-08
vn 1 -2.26369e-07 -6.18128e-10
vn 1 -2.31185e-07 6.18072e-10
vn 0.939693 0.34202 4.65214e-08
vn 0.766044 0.642788 8.74317e-08
vn 0.939692 -0.342021 -4.65215e-08
vn 0.939692 -0.342021 -4.59034e-08
vn 0.766044 -0.642788 -1.16585e-07
vn 0.766044 -0.642788 -8.74318e-08
vn 0.5 -0.866026 -2.01924e-07
vn 0.5 -0.866026 -2.44295e-07
vn 0.173648 -0.984808 4.30473e-08
vn 0.173648 -0.984808 -2.84767e-08
vn -0.173649 -0.984808 -2.84767e-08
vn -0.173649 -0.984808 4.30473e-08
vn 0.766044 0.642788 5.82783e-08
vn 0.5 0.866025 -8.70172e-09
vn 0.5 0.866025 -3.78552e-08
vn 0.173648 0.984808 -4.30473e-08
vn -0.173648 0.984808 -4.30473e-08
vn -0.173648 0.984808 -4.30473e-08
vn -0.5 0.866025 -3.78552e-08
vn -0.5 0.866025 -8.70172e-09
vn -0.766044 0.642788 5.82783e-08
vn -0.766044 0.642788 9.6946e-08
vn -0.939693 0.34202 6.7743e-08
vn -0.939693 0.34202 7.33349e-08
vn -1 9.63272e-09 3.92238e-09
vn -1 1.68573e-08 -6.18099e-10
vn -0.939693 -0.34202 -4.59033e-08
vn -0.939693 -0.34202 -6.555e-08
vn -0.766045 -0.642787 -1.83932e-07
vn -0.766045 -0.642787 -2.02961e-07
vn -0.5 -0.866025 -2.73448e-07
vn -0.5 -0.866025 -2.01924e-07
vn -2.71782e-09 1.14169e-07 -1
vn -2.71782e-09 1.14169e-07 -1
vn 9.01301e-08 6.37014e-08 -1
vn 7.32077e-08 2.5836e-07 -1
vn -3.94552e-08 1.38518e-07 -1
vn -3.86856e-08 1.63512e-07 -1
vn -2.78756e-14 5.72235e-08 -1
vn -9.94022e-08 1.14033e-07 -1
vn 9.01301e-08 6.37014e-08 -1
vn 5.57513e-14 5.72236e-08 -1
vn 5.57514e-14 5.72236e-08 -1
vn -4.79572e-08 8.80499e-08 -1
vn -3.94552e-08 1.38517e-07 -1
vn -3.86856e-08 1.63512e-07 -1
vn -1.4736e-07 -7.05222e-08 1
vn -1.4736e-07 -7.05222e-08 1
vn 1.25596e-07 8.59778e-08 1
vn 1.49574e-07 -2.41957e-07 1
vn -1.49574e-07 -2.41957e-07 1
vn -1.67254e-13 -2.59094e-07 1
vn -1.25596e-07 8.59778e-08 1
vn 5.99464e-08 -1.2099e-07 1
vn 8.36271e-14 -2.59094e-07 1
vn 8.36271e-14 -2.59094e-07 1
vn -9.94016e-08 -1.14033e-07 1
vn -9.94016e-08 -1.14033e-07 1

# Mesh 'Coin' with 68 faces
g Coin
usemtl Material10
f  1/1/1 2/2/2 3/3/3
f  3/3/3 4/4/4 1/1/1
f  5/5/5 1/1/1 4/4/4
f  2/2/2 6/6/6 7/7/7
f  7/7/7 3/3/3 2/2/2
f  6/6/6 8/8/8 9/9/9
f  9/9/9 7/7/7 6/6/6
f  8/8/8 10/10/10 11/11/11
f  11/11/11 9/9/9 8/8/8
f  10/10/10 12/12/12 13/13/13
f  13/13/13 11/11/11 10/10/10
f  12/12/12 14/14/14 15/15/15
f  15/15/15 13/13/13 12/12/12
f  4/4/4 16/16/16 5/5/5
f  17/17/17 5/5/5 16/16/16
f  16/16/16 18/18/18 17/17/17
f  19/19/19 17/17/17 18/18/18
f  18/18/18 20/20/19 19/19/19
f  21/21/20 19/22/19 20/23/19
f  20/23/19 22/24/21 21/21/20
f  23/25/22 21/21/20 22/24/21
f  22/24/21 24/26/23 23/25/22
f  25/27/24 23/25/22 24/26/23
f  24/26/23 26/28/25 25/27/24
f  27/29/26 25/27/24 26/28/25
f  26/28/25 28/30/27 27/29/26
f  29/31/28 27/29/26 28/30/27
f  28/30/27 30/32/29 29/31/28
f  31/33/30 29/31/28 30/32/29
f  30/32/29 32/34/31 31/33/30
f  33/35/32 31/33/30 32/34/31
f  32/34/31 34/36/33 33/35/32
f  35/37/34 33/35/32 34/36/33
f  34/36/33 36/38/35 35/37/34
f  14/39/14 35/37/34 36/38/35
f  36/38/35 15/40/15 14/39/14
f  18/41/36 16/42/37 4/43/36
f  18/41/36 4/43/36 11/44/38
f  18/41/36 11/44/38 34/45/39
f  18/41/36 34/45/39 26/46/40
f  18/41/36 26/46/40 22/47/41
f  18/41/36 22/47/41 20/48/42
f  4/43/36 3/49/43 7/50/43
f  4/43/36 7/50/43 11/44/38
f  7/50/43 9/51/44 11/44/38
f  11/44/38 13/52/45 15/53/46
f  11/44/38 15/53/46 34/45/39
f  15/53/46 36/54/39 34/45/39
f  34/45/39 32/55/47 30/56/47
f  34/45/39 30/56/47 26/46/40
f  30/56/47 28/57/48 26/46/40
f  26/46/40 24/58/49 22/47/41
f  8/59/50 6/60/51 2/61/50
f  8/59/50 2/61/50 19/62/52
f  8/59/50 19/62/52 27/63/53
f  8/59/50 27/63/53 35/64/54
f  8/59/50 35/64/54 12/65/55
f  8/59/50 12/65/55 10/66/56
f  2/61/50 1/67/57 5/68/57
f  2/61/50 5/68/57 19/62/52
f  5/68/57 17/69/52 19/62/52
f  19/62/52 21/70/58 23/71/59
f  19/62/52 23/71/59 27/63/53
f  23/71/59 25/72/53 27/63/53
f  27/63/53 29/73/60 31/74/61
f  27/63/53 31/74/61 35/64/54
f  31/74/61 33/75/54 35/64/54
f  35/64/54 14/76/55 12/65/55

