mtllib go1.mtl
o go_stone_LOD2_Mesh.005
v -0.004209 0.003234 -0.000000
v -0.007778 0.002475 -0.000000
v -0.010163 0.001339 -0.000000
v -0.011000 0.000000 -0.000000
v -0.010163 -0.001339 -0.000000
v -0.007778 -0.002475 -0.000000
v -0.004209 -0.003234 -0.000000
v -0.003889 0.003234 -0.001611
v -0.007186 0.002475 -0.002977
v -0.009389 0.001339 -0.003889
v -0.010163 0.000000 -0.004210
v -0.009389 -0.001339 -0.003889
v -0.007186 -0.002475 -0.002977
v -0.003889 -0.003234 -0.001611
v -0.002977 0.003234 -0.002977
v -0.005500 0.002475 -0.005500
v -0.007186 0.001339 -0.007186
v -0.007778 0.000000 -0.007778
v -0.007186 -0.001339 -0.007186
v -0.005500 -0.002475 -0.005500
v -0.002977 -0.003234 -0.002977
v -0.001611 0.003234 -0.003889
v -0.002977 0.002475 -0.007186
v -0.003889 0.001339 -0.009389
v -0.004209 0.000000 -0.010163
v -0.003889 -0.001339 -0.009389
v -0.002977 -0.002475 -0.007186
v -0.001611 -0.003234 -0.003889
v 0.000000 0.003234 -0.004210
v 0.000000 0.002475 -0.007778
v 0.000000 0.001339 -0.010163
v 0.000000 0.000000 -0.011000
v 0.000000 -0.001339 -0.010163
v 0.000000 -0.002475 -0.007778
v 0.000000 -0.003234 -0.004210
v 0.001611 0.003234 -0.003889
v 0.002977 0.002475 -0.007186
v 0.003889 0.001339 -0.009389
v 0.004210 0.000000 -0.010163
v 0.003889 -0.001339 -0.009389
v 0.002977 -0.002475 -0.007186
v 0.001611 -0.003234 -0.003889
v 0.002977 0.003234 -0.002977
v 0.005500 0.002475 -0.005500
v 0.007186 0.001339 -0.007186
v 0.007778 0.000000 -0.007778
v 0.007186 -0.001339 -0.007186
v 0.005500 -0.002475 -0.005500
v 0.002977 -0.003234 -0.002977
v 0.003889 0.003234 -0.001611
v 0.007186 0.002475 -0.002977
v 0.009389 0.001339 -0.003889
v 0.010163 0.000000 -0.004210
v 0.009389 -0.001339 -0.003889
v 0.007186 -0.002475 -0.002977
v 0.003889 -0.003234 -0.001611
v 0.004210 0.003234 -0.000000
v 0.007778 0.002475 -0.000000
v 0.010163 0.001339 -0.000000
v 0.011000 0.000000 -0.000000
v 0.010163 -0.001339 -0.000000
v 0.007778 -0.002475 -0.000000
v 0.004210 -0.003234 -0.000000
v 0.003889 0.003234 0.001611
v 0.007186 0.002475 0.002976
v 0.009389 0.001339 0.003889
v 0.010163 0.000000 0.004209
v 0.009389 -0.001339 0.003889
v 0.007186 -0.002475 0.002976
v 0.003889 -0.003234 0.001611
v 0.002977 0.003234 0.002976
v 0.005500 0.002475 0.005500
v 0.007186 0.001339 0.007186
v 0.007778 0.000000 0.007778
v 0.007186 -0.001339 0.007186
v 0.005500 -0.002475 0.005500
v 0.002977 -0.003234 0.002976
v 0.000000 -0.003500 -0.000000
v 0.001611 0.003234 0.003889
v 0.002977 0.002475 0.007186
v 0.003889 0.001339 0.009389
v 0.004210 0.000000 0.010162
v 0.003889 -0.001339 0.009389
v 0.002977 -0.002475 0.007186
v 0.001611 -0.003234 0.003889
v 0.000000 0.003234 0.004209
v 0.000000 0.002475 0.007778
v 0.000000 0.001339 0.010162
v 0.000000 0.000000 0.011000
v 0.000000 -0.001339 0.010162
v 0.000000 -0.002475 0.007778
v 0.000000 -0.003234 0.004209
v -0.001611 0.003234 0.003889
v -0.002977 0.002475 0.007186
v -0.003889 0.001339 0.009389
v -0.004209 0.000000 0.010162
v -0.003889 -0.001339 0.009389
v -0.002977 -0.002475 0.007186
v -0.001611 -0.003234 0.003889
v -0.002977 0.003234 0.002976
v -0.005500 0.002475 0.005500
v -0.007186 0.001339 0.007186
v -0.007778 0.000000 0.007778
v -0.007186 -0.001339 0.007186
v -0.005500 -0.002475 0.005500
v -0.002977 -0.003234 0.002976
v 0.000000 0.003500 -0.000000
v -0.003889 0.003234 0.001611
v -0.007186 0.002475 0.002976
v -0.009389 0.001339 0.003889
v -0.010163 0.000000 0.004209
v -0.009389 -0.001339 0.003889
v -0.007186 -0.002475 0.002976
v -0.003889 -0.003234 0.001611
vt 0.464025 0.507417
vt 0.459262 0.516079
vt 0.451893 0.513823
vt 0.455681 0.522648
vt 0.451126 0.521281
vt 0.452700 0.528207
vt 0.450507 0.527557
vt 0.378150 0.527743
vt 0.375195 0.522224
vt 0.379692 0.520835
vt 0.449972 0.533390
vt 0.380947 0.532874
vt 0.380323 0.527064
vt 0.384383 0.521256
vt 0.378985 0.513512
vt 0.378082 0.503946
vt 0.389218 0.504998
vt 0.371763 0.515705
vt 0.367299 0.507146
vt 0.465176 0.520987
vt 0.459358 0.525661
vt 0.376400 0.529201
vt 0.454476 0.529648
vt 0.371560 0.525220
vt 0.472873 0.514854
vt 0.365894 0.520482
vt 0.358481 0.514232
vt 0.468739 0.527768
vt 0.461593 0.529848
vt 0.375338 0.531217
vt 0.455564 0.531658
vt 0.369336 0.529382
vt 0.478160 0.525067
vt 0.362273 0.527155
vt 0.353000 0.524190
vt 0.469432 0.535372
vt 0.462053 0.534563
vt 0.375128 0.533489
vt 0.455798 0.533929
vt 0.368869 0.534089
vt 0.479131 0.536473
vt 0.361469 0.534730
vt 0.351729 0.535534
vt 0.467176 0.542642
vt 0.460678 0.539089
vt 0.375803 0.535672
vt 0.455147 0.536116
vt 0.370240 0.538627
vt 0.475691 0.547337
vt 0.363628 0.542061
vt 0.354902 0.546547
vt 0.462334 0.548487
vt 0.457684 0.542745
vt 0.377265 0.537431
vt 0.453710 0.537886
vt 0.373252 0.542302
vt 0.468414 0.556042
vt 0.368448 0.548028
vt 0.362078 0.555547
vt 0.455651 0.552050
vt 0.453522 0.544976
vt 0.379291 0.538496
vt 0.451706 0.538973
vt 0.377454 0.544543
vt 0.458410 0.561344
vt 0.375215 0.551699
vt 0.372208 0.561140
vt 0.448097 0.552804
vt 0.448829 0.545451
vt 0.381573 0.538702
vt 0.449440 0.539211
vt 0.382203 0.544995
vt 0.447120 0.562454
vt 0.382905 0.552477
vt 0.383795 0.562415
vt 0.440840 0.550632
vt 0.444305 0.544104
vt 0.383759 0.538016
vt 0.447254 0.538566
vt 0.386761 0.543579
vt 0.436264 0.559193
vt 0.390284 0.550178
vt 0.395072 0.559034
vt 0.434930 0.545856
vt 0.440639 0.541127
vt 0.385513 0.536544
vt 0.445480 0.537134
vt 0.390420 0.540520
vt 0.427433 0.552040
vt 0.396233 0.545255
vt 0.404037 0.551427
vt 0.431298 0.539174
vt 0.438377 0.536975
vt 0.386567 0.534514
vt 0.392612 0.536297
vt 0.444388 0.535132
vt 0.421984 0.542046
vt 0.399771 0.538417
vt 0.409252 0.541068
vt 0.430476 0.531596
vt 0.437880 0.532264
vt 0.386761 0.532238
vt 0.444144 0.532862
vt 0.393015 0.531571
vt 0.420736 0.530699
vt 0.400407 0.530791
vt 0.410089 0.529636
vt 0.432621 0.524254
vt 0.439224 0.527715
vt 0.386072 0.530065
vt 0.444788 0.530670
vt 0.391582 0.527064
vt 0.423925 0.519678
vt 0.398118 0.523514
vt 0.406573 0.518850
vt 0.437435 0.518275
vt 0.442214 0.524024
vt 0.384606 0.528323
vt 0.446223 0.528891
vt 0.388544 0.523459
vt 0.431136 0.510670
vt 0.393184 0.517748
vt 0.399277 0.510157
vt 0.444203 0.514597
vt 0.446397 0.521764
vt 0.382592 0.527265
vt 0.448232 0.527797
vt 0.441328 0.505107
vt 0.386501 0.514192
vt 0.452931 0.503958
vn -0.923900 -0.000000 -0.382700
vn -0.632100 -0.729300 -0.261800
vn -0.684100 -0.729300 0.000000
vn -0.308700 -0.942500 -0.127900
vn -0.334200 -0.942500 0.000000
vn -0.133800 -0.989500 -0.055400
vn -0.144900 -0.989500 0.000000
vn -0.102400 0.989500 -0.102400
vn -0.236300 0.942500 -0.236300
vn -0.308700 0.942500 -0.127900
vn -0.000000 -1.000000 0.000000
vn -0.000000 1.000000 -0.000000
vn -0.133800 0.989500 -0.055400
vn -0.334200 0.942500 0.000000
vn -0.632100 0.729300 -0.261800
vn -1.000000 0.000000 0.000000
vn -0.483800 0.729300 -0.483800
vn -0.707100 0.000000 -0.707100
vn -0.483800 -0.729300 -0.483800
vn -0.236300 -0.942500 -0.236300
vn -0.055400 0.989500 -0.133800
vn -0.102400 -0.989500 -0.102400
vn -0.127900 0.942500 -0.308700
vn -0.261800 0.729300 -0.632100
vn -0.382700 0.000000 -0.923900
vn -0.261800 -0.729300 -0.632100
vn -0.127900 -0.942500 -0.308700
vn 0.000000 0.989500 -0.144900
vn -0.055400 -0.989500 -0.133800
vn -0.000000 0.942500 -0.334200
vn -0.000000 0.729300 -0.684100
vn 0.000000 -0.000000 -1.000000
vn -0.000000 -0.729300 -0.684100
vn -0.000000 -0.942500 -0.334200
vn 0.055400 0.989500 -0.133800
vn 0.000000 -0.989500 -0.144900
vn 0.127900 0.942500 -0.308700
vn 0.261800 0.729300 -0.632100
vn 0.382700 -0.000000 -0.923900
vn 0.261800 -0.729300 -0.632100
vn 0.127900 -0.942500 -0.308700
vn 0.102400 0.989500 -0.102400
vn 0.055400 -0.989500 -0.133800
vn 0.236300 0.942500 -0.236300
vn 0.483800 0.729300 -0.483800
vn 0.707100 -0.000000 -0.707100
vn 0.483800 -0.729300 -0.483800
vn 0.236300 -0.942500 -0.236300
vn 0.133800 0.989500 -0.055400
vn 0.102400 -0.989500 -0.102400
vn 0.308700 0.942500 -0.127900
vn 0.632100 0.729300 -0.261800
vn 0.923900 -0.000000 -0.382700
vn 0.632100 -0.729300 -0.261800
vn 0.308700 -0.942500 -0.127900
vn 0.144900 0.989500 0.000000
vn 0.133800 -0.989500 -0.055400
vn 0.334200 0.942500 -0.000000
vn 0.684100 0.729300 -0.000000
vn 1.000000 -0.000000 0.000000
vn 0.684100 -0.729300 -0.000000
vn 0.334200 -0.942500 0.000000
vn 0.133800 0.989500 0.055400
vn 0.144900 -0.989500 -0.000000
vn 0.308700 0.942500 0.127900
vn 0.632100 0.729300 0.261800
vn 0.923900 0.000000 0.382700
vn 0.632100 -0.729300 0.261800
vn 0.308700 -0.942500 0.127900
vn 0.102400 0.989500 0.102400
vn 0.133800 -0.989500 0.055400
vn 0.236300 0.942500 0.236300
vn 0.483800 0.729300 0.483800
vn 0.707100 0.000000 0.707100
vn 0.483800 -0.729300 0.483800
vn 0.236300 -0.942500 0.236300
vn 0.055400 0.989500 0.133800
vn 0.102400 -0.989500 0.102400
vn 0.127900 0.942500 0.308700
vn 0.261800 0.729300 0.632100
vn 0.382700 0.000000 0.923900
vn 0.261800 -0.729300 0.632100
vn 0.127900 -0.942500 0.308700
vn -0.000000 0.989500 0.144900
vn -0.000000 0.942500 0.334200
vn 0.055400 -0.989500 0.133800
vn -0.000000 0.729300 0.684100
vn -0.000000 0.000000 1.000000
vn -0.000000 -0.729300 0.684100
vn -0.000000 -0.942500 0.334200
vn -0.055400 0.989500 0.133800
vn -0.000000 -0.989500 0.144900
vn -0.127900 0.942500 0.308700
vn -0.261800 0.729300 0.632100
vn -0.382700 0.000000 0.923900
vn -0.261800 -0.729300 0.632100
vn -0.127900 -0.942500 0.308700
vn -0.102400 0.989500 0.102400
vn -0.055400 -0.989500 0.133800
vn -0.236300 0.942500 0.236300
vn -0.483800 0.729300 0.483800
vn -0.707100 0.000000 0.707100
vn -0.483800 -0.729300 0.483800
vn -0.236300 -0.942500 0.236300
vn -0.133800 0.989500 0.055400
vn -0.102400 -0.989500 0.102400
vn -0.308700 0.942500 0.127900
vn -0.632100 0.729300 0.261800
vn -0.923900 -0.000000 0.382700
vn -0.632100 -0.729300 0.261800
vn -0.308700 -0.942500 0.127900
vn -0.144900 0.989500 -0.000000
vn -0.133800 -0.989500 0.055400
vn -0.684100 0.729300 0.000000
usemtl stone1
s 1
f 11/1/1 12/2/2 5/3/3
f 12/2/2 13/4/4 6/5/5
f 13/4/4 14/6/6 7/7/7
f 15/8/8 16/9/9 9/10/10
f 78/11/11 7/7/7 14/6/6
f 107/12/12 15/8/8 8/13/13
f 2/14/14 9/10/10 10/15/15
f 10/15/15 11/16/1 4/17/16
f 9/10/10 16/9/9 17/18/17
f 17/18/17 18/19/18 11/16/1
f 19/20/19 20/21/20 13/4/4
f 107/12/12 22/22/21 15/8/8
f 13/4/4 20/21/20 21/23/22
f 22/22/21 23/24/23 16/9/9
f 11/1/1 18/25/18 19/20/19
f 14/6/6 21/23/22 78/11/11
f 23/24/23 24/26/24 17/18/17
f 24/26/24 25/27/25 18/19/18
f 19/20/19 26/28/26 27/29/27
f 107/12/12 29/30/28 22/22/21
f 20/21/20 27/29/27 28/31/29
f 29/30/28 30/32/30 23/24/23
f 18/25/18 25/33/25 26/28/26
f 21/23/22 28/31/29 78/11/11
f 30/32/30 31/34/31 24/26/24
f 31/34/31 32/35/32 25/27/25
f 26/28/26 33/36/33 34/37/34
f 107/12/12 36/38/35 29/30/28
f 27/29/27 34/37/34 35/39/36
f 29/30/28 36/38/35 37/40/37
f 25/33/25 32/41/32 33/36/33
f 28/31/29 35/39/36 78/11/11
f 37/40/37 38/42/38 31/34/31
f 38/42/38 39/43/39 32/35/32
f 33/36/33 40/44/40 41/45/41
f 107/12/12 43/46/42 36/38/35
f 41/45/41 42/47/43 35/39/36
f 36/38/35 43/46/42 44/48/44
f 32/41/32 39/49/39 40/44/40
f 35/39/36 42/47/43 78/11/11
f 44/48/44 45/50/45 38/42/38
f 38/42/38 45/50/45 46/51/46
f 40/44/40 47/52/47 48/53/48
f 107/12/12 50/54/49 43/46/42
f 48/53/48 49/55/50 42/47/43
f 50/54/49 51/56/51 44/48/44
f 46/57/46 47/52/47 40/44/40
f 42/47/43 49/55/50 78/11/11
f 44/48/44 51/56/51 52/58/52
f 52/58/52 53/59/53 46/51/46
f 54/60/54 55/61/55 48/53/48
f 107/12/12 57/62/56 50/54/49
f 48/53/48 55/61/55 56/63/57
f 50/54/49 57/62/56 58/64/58
f 46/57/46 53/65/53 54/60/54
f 49/55/50 56/63/57 78/11/11
f 51/56/51 58/64/58 59/66/59
f 59/66/59 60/67/60 53/59/53
f 61/68/61 62/69/62 55/61/55
f 107/12/12 64/70/63 57/62/56
f 62/69/62 63/71/64 56/63/57
f 64/70/63 65/72/65 58/64/58
f 60/73/60 61/68/61 54/60/54
f 56/63/57 63/71/64 78/11/11
f 65/72/65 66/74/66 59/66/59
f 66/74/66 67/75/67 60/67/60
f 61/68/61 68/76/68 69/77/69
f 107/12/12 71/78/70 64/70/63
f 62/69/62 69/77/69 70/79/71
f 64/70/63 71/78/70 72/80/72
f 60/73/60 67/81/67 68/76/68
f 63/71/64 70/79/71 78/11/11
f 72/80/72 73/82/73 66/74/66
f 73/82/73 74/83/74 67/75/67
f 68/76/68 75/84/75 76/85/76
f 107/12/12 79/86/77 71/78/70
f 76/85/76 77/87/78 70/79/71
f 79/86/77 80/88/79 72/80/72
f 67/81/67 74/89/74 75/84/75
f 70/79/71 77/87/78 78/11/11
f 72/80/72 80/88/79 81/90/80
f 81/90/80 82/91/81 74/83/74
f 83/92/82 84/93/83 76/85/76
f 79/86/77 86/94/84 87/95/85
f 76/85/76 84/93/83 85/96/86
f 77/87/78 85/96/86 78/11/11
f 74/89/74 82/97/81 83/92/82
f 107/12/12 86/94/84 79/86/77
f 80/88/79 87/95/85 88/98/87
f 88/98/87 89/99/88 82/91/81
f 90/100/89 91/101/90 84/93/83
f 107/12/12 93/102/91 86/94/84
f 91/101/90 92/103/92 85/96/86
f 86/94/84 93/102/91 94/104/93
f 82/97/81 89/105/88 90/100/89
f 85/96/86 92/103/92 78/11/11
f 87/95/85 94/104/93 95/106/94
f 95/106/94 96/107/95 89/99/88
f 97/108/96 98/109/97 91/101/90
f 107/12/12 100/110/98 93/102/91
f 98/109/97 99/111/99 92/103/92
f 93/102/91 100/110/98 101/112/100
f 89/105/88 96/113/95 97/108/96
f 92/103/92 99/111/99 78/11/11
f 94/104/93 101/112/100 102/114/101
f 102/114/101 103/115/102 96/107/95
f 104/116/103 105/117/104 98/109/97
f 107/12/12 108/118/105 100/110/98
f 105/117/104 106/119/106 99/111/99
f 100/110/98 108/118/105 109/120/107
f 96/113/95 103/121/102 104/116/103
f 99/111/99 106/119/106 78/11/11
f 101/112/100 109/120/107 110/122/108
f 110/122/108 111/123/109 103/115/102
f 112/124/110 113/125/111 105/117/104
f 107/12/12 1/126/112 108/118/105
f 113/125/111 114/127/113 106/119/106
f 1/126/112 2/14/14 109/120/107
f 103/121/102 111/128/109 112/124/110
f 106/119/106 114/127/113 78/11/11
f 2/14/14 3/129/114 110/122/108
f 3/129/114 4/17/16 111/123/109
f 112/124/110 5/3/3 6/5/5
f 113/125/111 6/5/5 7/7/7
f 107/12/12 8/13/13 1/126/112
f 111/128/109 4/130/16 5/3/3
f 114/127/113 7/7/7 78/11/11
f 1/126/112 8/13/13 9/10/10
f 4/130/16 11/1/1 5/3/3
f 5/3/3 12/2/2 6/5/5
f 6/5/5 13/4/4 7/7/7
f 8/13/13 15/8/8 9/10/10
f 3/129/114 2/14/14 10/15/15
f 3/129/114 10/15/15 4/17/16
f 10/15/15 9/10/10 17/18/17
f 10/15/15 17/18/17 11/16/1
f 12/2/2 19/20/19 13/4/4
f 14/6/6 13/4/4 21/23/22
f 15/8/8 22/22/21 16/9/9
f 12/2/2 11/1/1 19/20/19
f 16/9/9 23/24/23 17/18/17
f 17/18/17 24/26/24 18/19/18
f 20/21/20 19/20/19 27/29/27
f 21/23/22 20/21/20 28/31/29
f 22/22/21 29/30/28 23/24/23
f 19/20/19 18/25/18 26/28/26
f 23/24/23 30/32/30 24/26/24
f 24/26/24 31/34/31 25/27/25
f 27/29/27 26/28/26 34/37/34
f 28/31/29 27/29/27 35/39/36
f 30/32/30 29/30/28 37/40/37
f 26/28/26 25/33/25 33/36/33
f 30/32/30 37/40/37 31/34/31
f 31/34/31 38/42/38 32/35/32
f 34/37/34 33/36/33 41/45/41
f 34/37/34 41/45/41 35/39/36
f 37/40/37 36/38/35 44/48/44
f 33/36/33 32/41/32 40/44/40
f 37/40/37 44/48/44 38/42/38
f 39/43/39 38/42/38 46/51/46
f 41/45/41 40/44/40 48/53/48
f 41/45/41 48/53/48 42/47/43
f 43/46/42 50/54/49 44/48/44
f 39/49/39 46/57/46 40/44/40
f 45/50/45 44/48/44 52/58/52
f 45/50/45 52/58/52 46/51/46
f 47/52/47 54/60/54 48/53/48
f 49/55/50 48/53/48 56/63/57
f 51/56/51 50/54/49 58/64/58
f 47/52/47 46/57/46 54/60/54
f 52/58/52 51/56/51 59/66/59
f 52/58/52 59/66/59 53/59/53
f 54/60/54 61/68/61 55/61/55
f 55/61/55 62/69/62 56/63/57
f 57/62/56 64/70/63 58/64/58
f 53/65/53 60/73/60 54/60/54
f 58/64/58 65/72/65 59/66/59
f 59/66/59 66/74/66 60/67/60
f 62/69/62 61/68/61 69/77/69
f 63/71/64 62/69/62 70/79/71
f 65/72/65 64/70/63 72/80/72
f 61/68/61 60/73/60 68/76/68
f 65/72/65 72/80/72 66/74/66
f 66/74/66 73/82/73 67/75/67
f 69/77/69 68/76/68 76/85/76
f 69/77/69 76/85/76 70/79/71
f 71/78/70 79/86/77 72/80/72
f 68/76/68 67/81/67 75/84/75
f 73/82/73 72/80/72 81/90/80
f 73/82/73 81/90/80 74/83/74
f 75/84/75 83/92/82 76/85/76
f 80/88/79 79/86/77 87/95/85
f 77/87/78 76/85/76 85/96/86
f 75/84/75 74/89/74 83/92/82
f 81/90/80 80/88/79 88/98/87
f 81/90/80 88/98/87 82/91/81
f 83/92/82 90/100/89 84/93/83
f 84/93/83 91/101/90 85/96/86
f 87/95/85 86/94/84 94/104/93
f 83/92/82 82/97/81 90/100/89
f 88/98/87 87/95/85 95/106/94
f 88/98/87 95/106/94 89/99/88
f 90/100/89 97/108/96 91/101/90
f 91/101/90 98/109/97 92/103/92
f 94/104/93 93/102/91 101/112/100
f 90/100/89 89/105/88 97/108/96
f 95/106/94 94/104/93 102/114/101
f 95/106/94 102/114/101 96/107/95
f 97/108/96 104/116/103 98/109/97
f 98/109/97 105/117/104 99/111/99
f 101/112/100 100/110/98 109/120/107
f 97/108/96 96/113/95 104/116/103
f 102/114/101 101/112/100 110/122/108
f 102/114/101 110/122/108 103/115/102
f 104/116/103 112/124/110 105/117/104
f 105/117/104 113/125/111 106/119/106
f 108/118/105 1/126/112 109/120/107
f 104/116/103 103/121/102 112/124/110
f 109/120/107 2/14/14 110/122/108
f 110/122/108 3/129/114 111/123/109
f 113/125/111 112/124/110 6/5/5
f 114/127/113 113/125/111 7/7/7
f 112/124/110 111/128/109 5/3/3
f 2/14/14 1/126/112 9/10/10
