# Blender v2.76 (sub 0) OBJ File: ''
# www.blender.org
mtllib leg.mtl
o go_leg2_LOD2_Mesh.006
v 0.000000 0.000000 -0.029826
v -0.013743 0.000000 -0.033179
v -0.021090 0.000000 -0.021090
v -0.033179 0.000000 -0.013743
v -0.029826 0.000000 -0.000000
v -0.033179 0.000000 0.013743
v -0.021090 0.000000 0.021091
v -0.013743 0.000000 0.033179
v 0.000000 0.000000 0.029826
v 0.013743 0.000000 0.033179
v 0.021090 0.000000 0.021091
v 0.033179 0.000000 0.013743
v 0.029826 0.000000 -0.000000
v 0.033179 0.000000 -0.013743
v 0.021090 0.000000 -0.021091
v 0.013743 0.000000 -0.033179
v -0.012910 -0.054156 0.000000
v 0.000000 -0.054156 -0.012910
v 0.012910 -0.054156 0.000000
v 0.000000 -0.054156 0.012910
v 0.005949 -0.054156 0.014361
v -0.014361 -0.054156 0.005949
v -0.005949 -0.054156 -0.014361
v 0.014361 -0.054156 -0.005949
v 0.009129 -0.054156 -0.009129
v 0.009129 -0.054156 0.009129
v -0.009129 -0.054156 0.009129
v -0.009129 -0.054156 -0.009129
v -0.014361 -0.054156 -0.005949
v 0.005949 -0.054156 -0.014361
v 0.014361 -0.054156 0.005949
v -0.005949 -0.054156 0.014361
v -0.031927 -0.034221 -0.013225
v 0.013225 -0.034221 -0.031927
v 0.031927 -0.034221 0.013225
v -0.013225 -0.034221 0.031927
v -0.028701 -0.034221 0.000000
v 0.000000 -0.034221 -0.028701
v 0.028701 -0.034221 0.000000
v 0.000000 -0.034221 0.028701
v 0.013225 -0.034221 0.031927
v -0.031927 -0.034221 0.013225
v -0.013225 -0.034221 -0.031927
v 0.031927 -0.034221 -0.013225
v 0.020295 -0.034221 -0.020295
v 0.020295 -0.034221 0.020295
v -0.020295 -0.034221 0.020295
v -0.020295 -0.034221 -0.020295
v -0.003427 -0.101795 -0.008274
v 0.000000 -0.101795 -0.007438
v -0.005260 -0.101795 -0.005260
v -0.008274 -0.101795 -0.003427
v -0.007438 -0.101795 0.000000
v -0.008274 -0.101795 0.003427
v -0.005260 -0.101795 0.005260
v -0.003427 -0.101795 0.008274
v 0.000000 -0.101795 0.007438
v 0.003427 -0.101795 0.008274
v 0.005260 -0.101795 0.005260
v 0.008274 -0.101795 0.003427
v 0.007438 -0.101795 0.000000
v 0.008274 -0.101795 -0.003427
v 0.005260 -0.101795 -0.005260
v 0.003427 -0.101795 -0.008274
v -0.026275 -0.059606 0.000000
v 0.000000 -0.059606 -0.026274
v 0.026275 -0.059606 0.000000
v 0.000000 -0.059606 0.026274
v 0.012107 -0.059606 0.029228
v -0.029228 -0.059606 0.012107
v -0.012107 -0.059606 -0.029228
v 0.029228 -0.059606 -0.012107
v 0.018579 -0.059606 -0.018579
v 0.018579 -0.059606 0.018579
v -0.018579 -0.059606 0.018579
v -0.018579 -0.059606 -0.018579
v -0.029228 -0.059606 -0.012107
v 0.012107 -0.059606 -0.029228
v 0.029228 -0.059606 0.012107
v -0.012107 -0.059606 0.029228
v 0.000000 -0.101795 0.000000
v -0.025050 -0.091701 -0.010376
v 0.010376 -0.091701 -0.025050
v 0.025050 -0.091701 0.010376
v -0.010376 -0.091701 0.025050
v -0.015923 -0.091701 -0.015923
v -0.015923 -0.091701 0.015923
v 0.015923 -0.091701 0.015923
v 0.015923 -0.091701 -0.015923
v 0.025050 -0.091701 -0.010376
v -0.010376 -0.091701 -0.025050
v -0.025050 -0.091701 0.010376
v 0.010376 -0.091701 0.025050
v 0.000000 -0.091701 0.022519
v 0.022519 -0.091701 0.000000
v 0.000000 -0.091701 -0.022519
v -0.022519 -0.091701 0.000000
v -0.020456 -0.072866 -0.020456
v -0.020456 -0.072866 0.020455
v 0.020456 -0.072866 0.020455
v 0.020456 -0.072866 -0.020456
v 0.032181 -0.072866 -0.013330
v -0.013330 -0.072866 -0.032181
v -0.032181 -0.072866 0.013330
v 0.013330 -0.072866 0.032180
v 0.000000 -0.072866 0.028928
v 0.028929 -0.072866 0.000000
v 0.000000 -0.072866 -0.028929
v -0.028929 -0.072866 0.000000
v -0.032181 -0.072866 -0.013330
v 0.013330 -0.072866 -0.032181
v 0.032181 -0.072866 0.013330
v -0.013330 -0.072866 0.032180
vt 0.658211 0.675620
vt 0.658211 0.600752
vt 0.689141 0.600752
vt 0.781932 0.675620
vt 0.781931 0.600751
vt 0.812861 0.600751
vt 0.905651 0.675619
vt 0.905651 0.600751
vt 0.936581 0.600751
vt 0.503562 0.600752
vt 0.534492 0.600752
vt 0.534492 0.675620
vt 0.627282 0.600752
vt 0.751001 0.600751
vt 0.874721 0.600751
vt 0.843791 0.675620
vt 0.843791 0.600751
vt 0.565422 0.600752
vt 0.596352 0.600752
vt 0.596352 0.675620
vt 0.967511 0.600751
vt 0.967511 0.675619
vt 0.720071 0.600751
vt 0.720071 0.675620
vt 0.739899 0.686304
vt 0.739990 0.746428
vt 0.728018 0.743796
vt 0.653647 0.772529
vt 0.713606 0.772583
vt 0.710997 0.784455
vt 0.739920 0.858640
vt 0.739829 0.798516
vt 0.751801 0.801148
vt 0.826172 0.772415
vt 0.766213 0.772361
vt 0.768822 0.760490
vt 0.751924 0.743719
vt 0.711050 0.760666
vt 0.727895 0.801225
vt 0.768768 0.784278
vt 0.800369 0.832858
vt 0.758381 0.790791
vt 0.721438 0.754153
vt 0.679450 0.712086
vt 0.758527 0.753980
vt 0.800375 0.711987
vt 0.721292 0.790964
vt 0.679444 0.832958
vt 0.952297 0.743792
vt 0.989097 0.728154
vt 0.984821 0.757513
vt 0.952022 0.770324
vt 0.989097 0.785273
vt 0.965321 0.803012
vt 0.948717 0.825662
vt 0.933080 0.788883
vt 0.907235 0.724523
vt 0.891598 0.687743
vt 0.920954 0.692018
vt 0.906570 0.788594
vt 0.891605 0.825657
vt 0.873873 0.801874
vt 0.851222 0.785264
vt 0.888021 0.769624
vt 0.874992 0.710396
vt 0.948716 0.687753
vt 0.933745 0.724818
vt 0.855495 0.755903
vt 0.888296 0.743086
vt 0.851214 0.728140
vt 0.966447 0.711541
vt 0.919364 0.821389
vt 0.626362 0.752984
vt 0.585383 0.752959
vt 0.586967 0.745795
vt 0.586955 0.760125
vt 0.576809 0.735641
vt 0.569605 0.737231
vt 0.569773 0.696125
vt 0.552190 0.745710
vt 0.553699 0.752840
vt 0.512182 0.752716
vt 0.562284 0.770237
vt 0.569538 0.768630
vt 0.569634 0.809944
vt 0.562407 0.735596
vt 0.558411 0.741792
vt 0.529464 0.712469
vt 0.580762 0.741852
vt 0.609805 0.712887
vt 0.576761 0.770257
vt 0.580741 0.764056
vt 0.609786 0.793115
vt 0.552228 0.760650
vt 0.558152 0.763811
vt 0.529057 0.793552
vt 0.911943 0.740084
vt 0.919511 0.758355
vt 0.907897 0.746741
vt 0.907897 0.769969
vt 0.911943 0.776626
vt 0.937782 0.750787
vt 0.931125 0.746741
vt 0.919511 0.774779
vt 0.901240 0.750787
vt 0.903087 0.758355
vt 0.901240 0.765923
vt 0.927079 0.740084
vt 0.937782 0.765923
vt 0.935935 0.758355
vt 0.927079 0.776626
vt 0.931125 0.769969
vt 0.919511 0.741931
vt 0.565343 0.555208
vt 0.596286 0.555208
vt 0.596286 0.592865
vt 0.689115 0.555208
vt 0.720058 0.555208
vt 0.720058 0.592865
vt 0.812887 0.555208
vt 0.843831 0.555208
vt 0.843831 0.592865
vt 0.936660 0.555208
vt 0.967603 0.555208
vt 0.967603 0.592865
vt 0.998546 0.555208
vt 0.874774 0.555208
vt 0.751001 0.555208
vt 0.627229 0.555208
vt 0.998440 0.600751
vt 0.658172 0.555208
vt 0.658172 0.592865
vt 0.627229 0.501720
vt 0.658172 0.501720
vt 0.751001 0.501720
vt 0.781944 0.501720
vt 0.874774 0.501720
vt 0.905717 0.501720
vt 0.503457 0.555208
vt 0.503456 0.501720
vt 0.534399 0.501720
vt 0.596286 0.501720
vt 0.720058 0.501720
vt 0.843831 0.501720
vt 0.967603 0.501720
vt 0.998546 0.501720
vt 0.936660 0.501720
vt 0.689115 0.501720
vt 0.565343 0.501720
vt 0.812887 0.501720
vt 0.781944 0.592865
vt 0.781944 0.555208
vt 0.905717 0.592865
vt 0.905717 0.555208
vt 0.534400 0.592865
vt 0.534400 0.555208
vt 0.689141 0.675620
vt 0.812862 0.675620
vt 0.936581 0.675619
vt 0.503562 0.675620
vt 0.627282 0.675620
vt 0.751001 0.675620
vt 0.874721 0.675619
vt 0.565422 0.675620
vt 0.704216 0.686387
vt 0.653724 0.808215
vt 0.775603 0.858557
vt 0.826095 0.736729
vt 0.775578 0.686324
vt 0.653731 0.736840
vt 0.704241 0.858620
vt 0.826089 0.808104
vt 0.949039 0.757060
vt 0.940348 0.777403
vt 0.920484 0.727776
vt 0.899506 0.776907
vt 0.899969 0.736002
vt 0.891285 0.756355
vt 0.940807 0.736512
vt 0.919829 0.785630
vt 0.630697 0.727727
vt 0.630697 0.778267
vt 0.595057 0.691917
vt 0.508160 0.727172
vt 0.544183 0.814499
vt 0.544475 0.691625
vt 0.594995 0.814156
vt 0.507690 0.778475
vt 0.565343 0.592865
vt 0.689115 0.592865
vt 0.812887 0.592865
vt 0.936660 0.592865
vt 0.998546 0.592865
vt 0.874774 0.592865
vt 0.751001 0.592865
vt 0.627229 0.592865
vt 0.998440 0.675619
vt 0.503456 0.592865
vn -0.706700 -0.032900 0.706700
vn -0.659600 -0.360500 0.659600
vn -0.358600 -0.349000 0.865800
vn 0.706700 -0.032900 0.706700
vn 0.659600 -0.360500 0.659600
vn 0.865800 -0.349000 0.358600
vn 0.706700 -0.032900 -0.706700
vn 0.659600 -0.360500 -0.659600
vn 0.358600 -0.349000 -0.865800
vn -0.358600 -0.349000 -0.865800
vn -0.659600 -0.360500 -0.659600
vn -0.706700 -0.032900 -0.706700
vn -0.865800 -0.349000 0.358600
vn 0.358600 -0.349000 0.865800
vn 0.865800 -0.349000 -0.358600
vn 0.999500 -0.032900 0.000000
vn 0.932800 -0.360500 0.000000
vn -0.865800 -0.349000 -0.358600
vn -0.932800 -0.360500 0.000000
vn -0.999500 -0.032900 0.000000
vn -0.000000 -0.360500 -0.932800
vn -0.000000 -0.032900 -0.999500
vn -0.000000 -0.360500 0.932800
vn -0.000000 -0.032900 0.999500
vn -0.688400 0.228600 -0.688400
vn -0.857500 0.372300 -0.355200
vn -0.688400 0.228600 0.688400
vn -0.355200 0.372300 0.857500
vn 0.688400 0.228600 0.688400
vn 0.857500 0.372300 0.355200
vn 0.688400 0.228600 -0.688400
vn 0.355200 0.372300 -0.857500
vn -0.355200 0.372300 -0.857500
vn -0.857500 0.372300 0.355200
vn 0.355200 0.372300 0.857500
vn 0.857500 0.372300 -0.355200
vn 0.973500 0.228600 -0.000000
vn -0.973500 0.228600 0.000000
vn 0.000000 0.228600 -0.973500
vn -0.000000 0.228600 0.973500
vn 0.742800 0.594600 0.307700
vn 0.738300 0.674400 -0.000000
vn 0.742800 0.594600 -0.307700
vn 0.522100 0.674400 -0.522100
vn 0.307700 0.594600 -0.742800
vn -0.307700 0.594600 0.742800
vn -0.000000 0.674400 0.738300
vn -0.307700 0.594600 -0.742800
vn -0.522100 0.674400 -0.522100
vn -0.742800 0.594600 -0.307700
vn -0.522100 0.674400 0.522100
vn 0.307700 0.594600 0.742800
vn -0.738300 0.674400 -0.000000
vn -0.742800 0.594600 0.307700
vn 0.522100 0.674400 0.522100
vn 0.000000 0.674400 -0.738300
vn -0.000000 -0.633300 0.773900
vn 0.000000 -0.968500 0.249200
vn 0.130000 -0.940600 0.313800
vn -0.130000 -0.940600 0.313800
vn 0.313800 -0.940600 0.130000
vn 0.249200 -0.968500 -0.000000
vn 0.773900 -0.633300 0.000000
vn 0.130000 -0.940600 -0.313800
vn -0.000000 -0.968500 -0.249200
vn -0.000000 -0.633300 -0.773900
vn -0.313800 -0.940600 -0.130000
vn -0.249200 -0.968500 0.000000
vn -0.773900 -0.633300 0.000000
vn 0.313800 -0.940600 -0.130000
vn 0.176200 -0.968500 -0.176200
vn 0.547200 -0.633300 -0.547200
vn 0.176200 -0.968500 0.176200
vn 0.547200 -0.633300 0.547200
vn -0.313800 -0.940600 0.130000
vn -0.176200 -0.968500 0.176200
vn -0.547200 -0.633300 0.547200
vn -0.130000 -0.940600 -0.313800
vn -0.176200 -0.968500 -0.176200
vn -0.547200 -0.633300 -0.547200
vn 0.000000 -1.000000 -0.000000
vn 0.000000 -0.067900 -0.997700
vn -0.381800 -0.068600 -0.921700
vn -0.997700 -0.067900 -0.000000
vn -0.921700 -0.068600 0.381800
vn -0.000000 -0.067900 0.997700
vn 0.381800 -0.068600 0.921700
vn 0.997700 -0.067900 -0.000000
vn 0.921700 -0.068600 -0.381800
vn 0.705500 -0.067900 -0.705500
vn 0.705500 -0.067900 0.705500
vn -0.705500 -0.067900 0.705500
vn -0.705500 -0.067900 -0.705500
vn -0.921700 -0.068600 -0.381800
vn -0.734200 -0.607000 -0.304100
vn -0.304100 -0.607000 0.734200
vn 0.734200 -0.607000 0.304100
vn 0.304100 -0.607000 -0.734200
vn -0.304100 -0.607000 -0.734200
vn -0.734200 -0.607000 0.304100
vn 0.304100 -0.607000 0.734200
vn 0.734200 -0.607000 -0.304100
vn -0.381800 -0.068600 0.921700
vn 0.921700 -0.068600 0.381800
vn 0.381800 -0.068600 -0.921700
vn -0.382400 -0.039600 0.923200
vn 0.923200 -0.039600 0.382400
vn 0.382400 -0.039600 -0.923200
vn -0.382400 -0.039600 -0.923200
vn -0.923200 -0.039600 0.382400
vn 0.382400 -0.039600 0.923200
vn 0.923200 -0.039600 -0.382400
vn -0.923200 -0.039600 -0.382400
usemtl Go
s 1
f 7/1/1 47/2/2 36/3/3
f 11/4/4 46/5/5 35/6/6
f 15/7/7 45/8/8 34/9/9
f 43/10/10 48/11/11 3/12/12
f 42/13/13 47/2/2 7/1/1
f 41/14/14 46/5/5 11/4/4
f 44/15/15 45/8/8 15/7/7
f 13/16/16 39/17/17 44/15/15
f 33/18/18 37/19/19 5/20/20
f 34/9/9 38/21/21 1/22/22
f 35/6/6 39/17/17 13/16/16
f 36/3/3 40/23/23 9/24/24
f 9/24/24 40/23/23 41/14/14
f 5/20/20 37/19/19 42/13/13
f 48/25/11 28/26/25 29/27/26
f 47/28/2 27/29/27 32/30/28
f 46/31/5 26/32/29 31/33/30
f 45/34/8 25/35/31 30/36/32
f 23/37/33 28/26/25 48/25/11
f 22/38/34 27/29/27 47/28/2
f 21/39/35 26/32/29 46/31/5
f 24/40/36 25/35/31 45/34/8
f 39/41/17 19/42/37 24/40/36
f 29/27/26 17/43/38 37/44/19
f 30/36/32 18/45/39 38/46/21
f 31/33/30 19/42/37 39/41/17
f 32/30/28 20/47/40 40/48/23
f 40/48/23 20/47/40 21/39/35
f 37/44/19 17/43/38 22/38/34
f 31/49/30 79/50/41 67/51/42
f 24/52/36 72/53/43 73/54/44
f 73/54/44 78/55/45 30/56/32
f 32/57/28 80/58/46 68/59/47
f 67/51/42 72/53/43 24/52/36
f 23/60/33 71/61/48 76/62/49
f 76/62/49 77/63/50 29/64/26
f 75/65/51 80/58/46 32/57/28
f 68/59/47 69/66/52 21/67/35
f 29/64/26 77/63/50 65/68/53
f 22/69/34 70/70/54 75/65/51
f 21/67/35 69/66/52 74/71/55
f 74/71/55 79/50/41 31/49/30
f 30/56/32 78/55/45 66/72/56
f 94/73/57 57/74/58 58/75/59
f 56/76/60 57/74/58 94/73/57
f 60/77/61 61/78/62 95/79/63
f 64/80/64 50/81/65 96/82/66
f 52/83/67 53/84/68 97/85/69
f 95/79/63 61/78/62 62/86/70
f 62/86/70 63/87/71 89/88/72
f 58/75/59 59/89/73 88/90/74
f 54/91/75 55/92/76 87/93/77
f 49/94/78 51/95/79 86/96/80
f 89/88/72 63/87/71 64/80/64
f 88/90/74 59/89/73 60/77/61
f 87/93/77 55/92/76 56/76/60
f 86/96/80 51/95/79 52/83/67
f 96/82/66 50/81/65 49/94/78
f 65/68/53 70/70/54 22/69/34
f 64/97/64 81/98/81 50/99/65
f 53/100/68 81/98/81 54/101/75
f 60/102/61 81/98/81 61/103/62
f 54/101/75 81/98/81 55/104/76
f 50/99/65 81/98/81 49/105/78
f 51/106/79 81/98/81 52/107/67
f 52/107/67 81/98/81 53/100/68
f 61/103/62 81/98/81 62/108/70
f 58/109/59 81/98/81 59/110/73
f 56/111/60 81/98/81 57/112/58
f 57/112/58 81/98/81 58/109/59
f 62/108/70 81/98/81 63/113/71
f 59/110/73 81/98/81 60/102/61
f 55/104/76 81/98/81 56/111/60
f 49/105/78 81/98/81 51/106/79
f 63/113/71 81/98/81 64/97/64
f 108/114/82 103/115/83 71/116/48
f 109/117/84 104/118/85 70/119/54
f 106/120/86 105/121/87 69/122/52
f 107/123/88 102/124/89 72/125/43
f 72/125/43 102/124/89 101/126/90
f 69/122/52 105/121/87 100/127/91
f 70/119/54 104/118/85 99/128/92
f 71/116/48 103/115/83 98/129/93
f 1/22/22 38/21/21 43/130/10
f 97/85/69 53/84/68 54/91/75
f 3/12/12 48/11/11 33/18/18
f 66/72/56 71/61/48 23/60/33
f 38/46/21 18/45/39 23/37/33
f 98/129/93 110/131/94 77/132/50
f 98/129/93 86/133/80 82/134/95
f 99/128/92 87/135/77 85/136/96
f 100/127/91 88/137/74 84/138/97
f 101/139/90 89/140/72 83/141/98
f 91/142/99 86/133/80 98/129/93
f 92/143/100 87/135/77 99/128/92
f 93/144/101 88/137/74 100/127/91
f 90/145/102 89/146/72 101/126/90
f 107/123/88 95/147/63 90/145/102
f 82/134/95 97/148/69 109/117/84
f 83/141/98 96/149/66 108/114/82
f 84/138/97 95/147/63 107/123/88
f 85/136/96 94/150/57 106/120/86
f 106/120/86 94/150/57 93/144/101
f 109/117/84 97/148/69 92/143/100
f 108/114/82 96/149/66 91/142/99
f 80/151/46 113/152/103 106/120/86
f 79/153/41 112/154/104 107/123/88
f 78/155/45 111/156/105 108/114/82
f 77/132/50 110/131/94 109/117/84
f 101/139/90 111/156/105 78/155/45
f 100/127/91 112/154/104 79/153/41
f 99/128/92 113/152/103 80/151/46
f 8/157/106 7/1/1 36/3/3
f 12/158/107 11/4/4 35/6/6
f 16/159/108 15/7/7 34/9/9
f 2/160/109 43/10/10 3/12/12
f 6/161/110 42/13/13 7/1/1
f 10/162/111 41/14/14 11/4/4
f 14/163/112 44/15/15 15/7/7
f 14/163/112 13/16/16 44/15/15
f 4/164/113 33/18/18 5/20/20
f 16/159/108 34/9/9 1/22/22
f 12/158/107 35/6/6 13/16/16
f 8/157/106 36/3/3 9/24/24
f 10/162/111 9/24/24 41/14/14
f 6/161/110 5/20/20 42/13/13
f 33/165/18 48/25/11 29/27/26
f 36/166/3 47/28/2 32/30/28
f 35/167/6 46/31/5 31/33/30
f 34/168/9 45/34/8 30/36/32
f 43/169/10 23/37/33 48/25/11
f 42/170/13 22/38/34 47/28/2
f 41/171/14 21/39/35 46/31/5
f 44/172/15 24/40/36 45/34/8
f 44/172/15 39/41/17 24/40/36
f 33/165/18 29/27/26 37/44/19
f 34/168/9 30/36/32 38/46/21
f 35/167/6 31/33/30 39/41/17
f 36/166/3 32/30/28 40/48/23
f 41/171/14 40/48/23 21/39/35
f 42/170/13 37/44/19 22/38/34
f 19/173/37 31/49/30 67/51/42
f 25/174/31 24/52/36 73/54/44
f 25/174/31 73/54/44 30/56/32
f 20/175/40 32/57/28 68/59/47
f 19/173/37 67/51/42 24/52/36
f 28/176/25 23/60/33 76/62/49
f 28/176/25 76/62/49 29/64/26
f 27/177/27 75/65/51 32/57/28
f 20/175/40 68/59/47 21/67/35
f 17/178/38 29/64/26 65/68/53
f 27/177/27 22/69/34 75/65/51
f 26/179/29 21/67/35 74/71/55
f 26/179/29 74/71/55 31/49/30
f 18/180/39 30/56/32 66/72/56
f 93/181/101 94/73/57 58/75/59
f 85/182/96 56/76/60 94/73/57
f 84/183/97 60/77/61 95/79/63
f 83/184/98 64/80/64 96/82/66
f 82/185/95 52/83/67 97/85/69
f 90/186/102 95/79/63 62/86/70
f 90/186/102 62/86/70 89/88/72
f 93/181/101 58/75/59 88/90/74
f 92/187/100 54/91/75 87/93/77
f 91/188/99 49/94/78 86/96/80
f 83/184/98 89/88/72 64/80/64
f 84/183/97 88/90/74 60/77/61
f 85/182/96 87/93/77 56/76/60
f 82/185/95 86/96/80 52/83/67
f 91/188/99 96/82/66 49/94/78
f 17/178/38 65/68/53 22/69/34
f 66/189/56 108/114/82 71/116/48
f 65/190/53 109/117/84 70/119/54
f 68/191/47 106/120/86 69/122/52
f 67/192/42 107/123/88 72/125/43
f 73/193/44 72/125/43 101/126/90
f 74/194/55 69/122/52 100/127/91
f 75/195/51 70/119/54 99/128/92
f 76/196/49 71/116/48 98/129/93
f 2/197/109 1/22/22 43/130/10
f 92/187/100 97/85/69 54/91/75
f 4/164/113 3/12/12 33/18/18
f 18/180/39 66/72/56 23/60/33
f 43/169/10 38/46/21 23/37/33
f 76/196/49 98/129/93 77/132/50
f 110/131/94 98/129/93 82/134/95
f 113/152/103 99/128/92 85/136/96
f 112/154/104 100/127/91 84/138/97
f 111/156/105 101/139/90 83/141/98
f 103/115/83 91/142/99 98/129/93
f 104/118/85 92/143/100 99/128/92
f 105/121/87 93/144/101 100/127/91
f 102/124/89 90/145/102 101/126/90
f 102/124/89 107/123/88 90/145/102
f 110/131/94 82/134/95 109/117/84
f 111/156/105 83/141/98 108/114/82
f 112/154/104 84/138/97 107/123/88
f 113/152/103 85/136/96 106/120/86
f 105/121/87 106/120/86 93/144/101
f 104/118/85 109/117/84 92/143/100
f 103/115/83 108/114/82 91/142/99
f 68/191/47 80/151/46 106/120/86
f 67/192/42 79/153/41 107/123/88
f 66/189/56 78/155/45 108/114/82
f 65/190/53 77/132/50 109/117/84
f 73/198/44 101/139/90 78/155/45
f 74/194/55 100/127/91 79/153/41
f 75/195/51 99/128/92 80/151/46
