mtllib lid.mtl
o go_bowl_top_LOD2_Mesh.004
v -0.046676 -0.005913 -0.015166
v -0.058405 -0.021720 -0.018977
v -0.039705 -0.005913 -0.028847
v -0.049682 -0.021720 -0.036096
v -0.028847 -0.005913 -0.039705
v -0.036096 -0.021720 -0.049682
v -0.015166 -0.005913 -0.046676
v -0.018977 -0.021720 -0.058405
v 0.000000 -0.005913 -0.049078
v 0.000000 -0.021720 -0.061410
v 0.015166 -0.005913 -0.046676
v 0.018977 -0.021720 -0.058405
v 0.028847 -0.005913 -0.039705
v 0.036096 -0.021720 -0.049682
v 0.039705 -0.005913 -0.028847
v 0.049682 -0.021720 -0.036096
v 0.046676 -0.005913 -0.015166
v 0.058405 -0.021720 -0.018977
v 0.049078 -0.005913 -0.000000
v 0.061410 -0.021720 -0.000000
v 0.046676 -0.005913 0.015166
v 0.058405 -0.021720 0.018977
v 0.039705 -0.005913 0.028847
v 0.049682 -0.021720 0.036096
v 0.028847 -0.005913 0.039705
v 0.036096 -0.021720 0.049682
v 0.015166 -0.005913 0.046676
v 0.018977 -0.021720 0.058405
v 0.000000 -0.005913 0.049078
v 0.000000 -0.021720 0.061410
v -0.015166 -0.005913 0.046676
v -0.018977 -0.021720 0.058405
v 0.000000 0.000000 0.000000
v -0.028847 -0.005913 0.039705
v -0.036096 -0.021720 0.049682
v -0.039705 -0.005913 0.028847
v -0.049682 -0.021720 0.036096
v -0.046676 -0.005913 0.015166
v -0.058405 -0.021720 0.018977
v -0.049078 -0.005913 -0.000000
v -0.061411 -0.021720 -0.000000
v -0.051070 -0.021678 -0.016594
v -0.043443 -0.021678 -0.031563
v -0.031563 -0.021678 -0.043443
v -0.016594 -0.021678 -0.051070
v 0.000000 -0.021678 -0.053698
v 0.016594 -0.021678 -0.051070
v 0.031563 -0.021678 -0.043443
v 0.043443 -0.021678 -0.031563
v 0.051070 -0.021678 -0.016594
v 0.053698 -0.021678 -0.000000
v 0.051070 -0.021678 0.016594
v 0.043443 -0.021678 0.031563
v 0.031563 -0.021678 0.043443
v 0.016594 -0.021678 0.051070
v 0.000000 -0.021678 0.053698
v -0.016594 -0.021678 0.051070
v -0.031563 -0.021678 0.043443
v -0.043443 -0.021678 0.031563
v -0.051070 -0.021678 0.016594
v -0.053698 -0.021678 -0.000000
v -0.050969 -0.025005 -0.016561
v -0.043357 -0.025005 -0.031501
v -0.031501 -0.025005 -0.043357
v -0.016561 -0.025005 -0.050969
v 0.000000 -0.025005 -0.053592
v 0.016561 -0.025005 -0.050969
v 0.031501 -0.025005 -0.043357
v 0.043357 -0.025005 -0.031501
v 0.050969 -0.025005 -0.016561
v 0.053592 -0.025005 -0.000000
v 0.050969 -0.025005 0.016561
v 0.043357 -0.025005 0.031501
v 0.031501 -0.025005 0.043357
v 0.016561 -0.025005 0.050969
v 0.000000 -0.025005 0.053592
v -0.016561 -0.025005 0.050969
v -0.031501 -0.025005 0.043357
v -0.043357 -0.025005 0.031501
v -0.050969 -0.025005 0.016561
v -0.053592 -0.025005 -0.000000
v -0.058120 -0.013972 -0.018884
v -0.049440 -0.013972 -0.035920
v -0.035920 -0.013972 -0.049440
v -0.018884 -0.013972 -0.058120
v 0.000000 -0.013972 -0.061111
v 0.018884 -0.013972 -0.058120
v 0.035920 -0.013972 -0.049440
v 0.049440 -0.013972 -0.035920
v 0.058120 -0.013972 -0.018884
v 0.061111 -0.013972 -0.000000
v 0.058120 -0.013972 0.018884
v 0.049440 -0.013972 0.035920
v 0.035920 -0.013972 0.049440
v 0.018884 -0.013972 0.058120
v 0.000000 -0.013972 0.061111
v -0.018884 -0.013972 0.058120
v -0.035920 -0.013972 0.049440
v -0.049440 -0.013972 0.035920
v -0.058120 -0.013972 0.018884
v -0.061111 -0.013972 -0.000000
v -0.059496 -0.020894 -0.019332
v -0.050611 -0.020894 -0.036771
v -0.036771 -0.020894 -0.050611
v -0.019331 -0.020894 -0.059496
v 0.000000 -0.020894 -0.062558
v 0.019332 -0.020894 -0.059496
v 0.036771 -0.020894 -0.050611
v 0.050611 -0.020894 -0.036771
v 0.059496 -0.020894 -0.019332
v 0.062558 -0.020894 -0.000000
v 0.059496 -0.020894 0.019332
v 0.050611 -0.020894 0.036771
v 0.036771 -0.020894 0.050611
v 0.019332 -0.020894 0.059496
v 0.000000 -0.020894 0.062558
v -0.019331 -0.020894 0.059496
v -0.036771 -0.020894 0.050611
v -0.050611 -0.020894 0.036771
v -0.059496 -0.020894 0.019332
v -0.062558 -0.020894 -0.000000
v -0.045520 -0.024477 -0.014790
v -0.038721 -0.024477 -0.028133
v -0.028133 -0.024477 -0.038721
v -0.014790 -0.024477 -0.045520
v 0.000000 -0.024477 -0.047862
v 0.014790 -0.024477 -0.045520
v 0.028133 -0.024477 -0.038721
v 0.038721 -0.024477 -0.028133
v 0.045520 -0.024477 -0.014790
v 0.047862 -0.024477 -0.000000
v 0.045520 -0.024477 0.014790
v 0.038721 -0.024477 0.028133
v 0.028133 -0.024477 0.038721
v 0.014790 -0.024477 0.045520
v 0.000000 -0.024477 0.047862
v -0.014790 -0.024477 0.045520
v -0.028133 -0.024477 0.038721
v -0.038721 -0.024477 0.028133
v -0.045520 -0.024477 0.014790
v -0.047862 -0.024477 -0.000000
v -0.044180 -0.018595 -0.014355
v -0.037582 -0.018595 -0.027305
v -0.027305 -0.018595 -0.037582
v -0.014355 -0.018595 -0.044180
v 0.000000 -0.018595 -0.046453
v 0.014355 -0.018595 -0.044180
v 0.027305 -0.018595 -0.037582
v 0.037582 -0.018595 -0.027305
v 0.044180 -0.018595 -0.014355
v 0.046453 -0.018595 -0.000000
v 0.044180 -0.018595 0.014355
v 0.037582 -0.018595 0.027305
v 0.027305 -0.018595 0.037582
v 0.014355 -0.018595 0.044180
v 0.000000 -0.018595 0.046453
v -0.014355 -0.018595 0.044180
v -0.027305 -0.018595 0.037582
v -0.037582 -0.018595 0.027305
v -0.044180 -0.018595 0.014355
v -0.046453 -0.018595 -0.000000
v 0.000000 -0.010326 0.000000
vt 0.461082 0.713596
vt 0.448166 0.700579
vt 0.458926 0.685666
vt 0.348447 0.668549
vt 0.406468 0.659157
vt 0.354192 0.686017
vt 0.365052 0.700855
vt 0.379964 0.711612
vt 0.371579 0.727915
vt 0.330279 0.647228
vt 0.348381 0.650159
vt 0.394532 0.735332
vt 0.397469 0.717235
vt 0.415855 0.717175
vt 0.475106 0.624036
vt 0.458741 0.632300
vt 0.447881 0.617464
vt 0.433324 0.711436
vt 0.482650 0.671090
vt 0.464548 0.668156
vt 0.464484 0.649768
vt 0.418653 0.735294
vt 0.337826 0.694282
vt 0.460891 0.604548
vt 0.432970 0.606709
vt 0.353999 0.632650
vt 0.337691 0.624266
vt 0.351842 0.604726
vt 0.415465 0.601089
vt 0.397079 0.601155
vt 0.394277 0.583034
vt 0.379603 0.606903
vt 0.364749 0.617743
vt 0.441352 0.590406
vt 0.371343 0.590525
vt 0.002909 0.607551
vt 0.014529 0.571866
vt 0.027679 0.578753
vt 0.102780 0.508053
vt 0.140276 0.507988
vt 0.137837 0.522624
vt 0.067065 0.519552
vt 0.104943 0.522743
vt 0.036639 0.541535
vt 0.073636 0.532864
vt 0.066997 0.733183
vt 0.036605 0.711131
vt 0.047207 0.700729
vt 0.102719 0.744772
vt 0.073868 0.720013
vt 0.140277 0.744765
vt 0.105188 0.730122
vt 0.047007 0.552160
vt 0.175985 0.519493
vt 0.169143 0.532661
vt 0.240079 0.645033
vt 0.225440 0.642558
vt 0.225398 0.609678
vt 0.240081 0.607503
vt 0.215184 0.578433
vt 0.206383 0.541489
vt 0.228470 0.571820
vt 0.195799 0.551891
vt 0.228468 0.680730
vt 0.215308 0.673848
vt 0.206386 0.711098
vt 0.175998 0.733162
vt 0.169392 0.719856
vt 0.014522 0.680772
vt 0.027815 0.674158
vt 0.002909 0.645080
vt 0.017545 0.610026
vt 0.195995 0.700484
vt 0.017594 0.642902
vt 0.138102 0.730068
vt 0.051705 0.696179
vt 0.033387 0.581634
vt 0.023865 0.610996
vt 0.166459 0.714166
vt 0.191450 0.695979
vt 0.219088 0.610710
vt 0.136882 0.528946
vt 0.033498 0.671222
vt 0.166282 0.538377
vt 0.051541 0.556668
vt 0.137069 0.723751
vt 0.219119 0.641586
vt 0.106155 0.723795
vt 0.209595 0.670969
vt 0.191308 0.556440
vt 0.076552 0.538557
vt 0.023904 0.641869
vt 0.076741 0.714294
vt 0.209505 0.581367
vt 0.105973 0.529061
vt 0.043868 0.586948
vt 0.035478 0.612801
vt 0.135112 0.540568
vt 0.107844 0.540702
vt 0.207486 0.612582
vt 0.199056 0.586739
vt 0.161088 0.703695
vt 0.183110 0.687680
vt 0.059991 0.687828
vt 0.082044 0.703789
vt 0.199103 0.665655
vt 0.035509 0.639989
vt 0.081890 0.549032
vt 0.183039 0.564784
vt 0.107956 0.712164
vt 0.161006 0.548873
vt 0.207502 0.639777
vt 0.043956 0.665843
vt 0.059858 0.564972
vt 0.135192 0.712132
vt 0.445888 0.581810
vt 0.418399 0.582993
vt 0.320699 0.645571
vt 0.392896 0.573413
vt 0.367058 0.581799
vt 0.329092 0.619727
vt 0.483835 0.698592
vt 0.475235 0.694053
vt 0.482604 0.646964
vt 0.492225 0.645580
vt 0.483828 0.619747
vt 0.467861 0.597774
vt 0.367042 0.736510
vt 0.392872 0.744908
vt 0.420033 0.744915
vt 0.441584 0.727806
vt 0.329104 0.698571
vt 0.352040 0.713771
vt 0.445870 0.736531
vt 0.330327 0.671354
vt 0.320705 0.672738
vt 0.318666 0.673074
vt 0.318655 0.645260
vt 0.343618 0.722014
vt 0.345070 0.720544
vt 0.467855 0.720571
vt 0.469325 0.722024
vt 0.327268 0.699521
vt 0.446819 0.738367
vt 0.392560 0.746950
vt 0.366115 0.738357
vt 0.469313 0.596304
vt 0.485663 0.618798
vt 0.494265 0.645244
vt 0.494273 0.673059
vt 0.492230 0.672748
vt 0.485683 0.699520
vt 0.345071 0.597751
vt 0.327244 0.618800
vt 0.343602 0.596298
vt 0.366110 0.579963
vt 0.420369 0.571374
vt 0.420058 0.573416
vt 0.446815 0.579964
vt 0.069580 0.574152
vt 0.055778 0.659779
vt 0.069363 0.678468
vt 0.154895 0.560816
vt 0.194205 0.637802
vt 0.133069 0.699093
vt 0.154983 0.691939
vt 0.055952 0.592728
vt 0.133049 0.553716
vt 0.110103 0.553692
vt 0.194175 0.614783
vt 0.187038 0.592908
vt 0.048726 0.614646
vt 0.173501 0.574315
vt 0.173606 0.678367
vt 0.187120 0.659712
vt 0.088053 0.692022
vt 0.088246 0.560712
vt 0.048645 0.637772
vt 0.110006 0.699125
vt 0.121502 0.626328
vt 0.420368 0.746954
vt 0.392561 0.571374
vn 0.799000 0.542400 -0.259600
vn 0.349800 0.929900 -0.113600
vn 0.367800 0.929900 -0.000000
vn -0.297500 0.929900 -0.216200
vn -0.000000 1.000000 -0.000000
vn -0.216200 0.929900 -0.297500
vn -0.113600 0.929900 -0.349800
vn 0.000000 0.929900 -0.367800
vn -0.000000 0.542400 -0.840100
vn -0.799000 0.542400 -0.259600
vn -0.349800 0.929900 -0.113600
vn 0.259600 0.542400 -0.799000
vn 0.113600 0.929900 -0.349800
vn 0.216200 0.929900 -0.297500
vn 0.493800 0.542400 0.679700
vn 0.216200 0.929900 0.297500
vn 0.113600 0.929900 0.349800
vn 0.297500 0.929900 -0.216200
vn 0.799000 0.542400 0.259600
vn 0.349800 0.929900 0.113600
vn 0.297500 0.929900 0.216200
vn 0.493800 0.542400 -0.679700
vn -0.493800 0.542400 -0.679700
vn 0.259600 0.542400 0.799000
vn 0.000000 0.929900 0.367800
vn -0.367800 0.929900 -0.000000
vn -0.840100 0.542400 -0.000000
vn -0.799000 0.542400 0.259600
vn -0.113600 0.929900 0.349800
vn -0.216200 0.929900 0.297500
vn -0.493800 0.542400 0.679700
vn -0.297500 0.929900 0.216200
vn -0.349800 0.929900 0.113600
vn 0.000000 0.542400 0.840100
vn -0.679700 0.542400 0.493800
vn -0.195000 -0.943400 -0.268400
vn -0.102500 -0.943400 -0.315500
vn -0.202100 -0.756500 -0.622000
vn 0.195000 -0.943400 -0.268400
vn 0.268400 -0.943400 -0.195000
vn 0.529100 -0.756500 -0.384400
vn 0.102500 -0.943400 -0.315500
vn 0.384400 -0.756500 -0.529100
vn 0.000000 -0.943400 -0.331700
vn 0.202100 -0.756500 -0.622000
vn -0.315500 -0.943400 0.102500
vn -0.331700 -0.943400 0.000000
vn -0.654000 -0.756500 -0.000000
vn -0.268400 -0.943400 0.195000
vn -0.622000 -0.756500 0.202100
vn -0.195000 -0.943400 0.268400
vn -0.529100 -0.756500 0.384400
vn 0.000000 -0.756500 -0.654000
vn 0.315500 -0.943400 -0.102500
vn 0.622000 -0.756500 -0.202100
vn 0.195000 -0.943400 0.268400
vn 0.384400 -0.756500 0.529100
vn 0.529100 -0.756500 0.384400
vn 0.268400 -0.943400 0.195000
vn 0.622000 -0.756500 0.202100
vn 0.331700 -0.943400 -0.000000
vn 0.315500 -0.943400 0.102500
vn 0.654000 -0.756500 -0.000000
vn 0.102500 -0.943400 0.315500
vn 0.202100 -0.756500 0.622000
vn 0.000000 -0.943400 0.331700
vn -0.102500 -0.943400 0.315500
vn -0.202100 -0.756500 0.622000
vn -0.315500 -0.943400 -0.102500
vn -0.622000 -0.756500 -0.202100
vn -0.268400 -0.943400 -0.195000
vn -0.384400 -0.756500 -0.529100
vn 0.000000 -0.756500 0.654000
vn -0.529100 -0.756500 -0.384400
vn -0.384400 -0.756500 0.529100
vn -0.699200 -0.714900 -0.000000
vn -0.216100 -0.714900 -0.665000
vn -0.411000 -0.714900 -0.565700
vn -0.216100 -0.714900 0.665000
vn 0.000000 -0.714900 0.699200
vn 0.565700 -0.714900 0.411000
vn 0.565700 -0.714900 -0.411000
vn -0.665000 -0.714900 -0.216100
vn 0.665000 -0.714900 -0.216100
vn 0.000000 -0.714900 -0.699200
vn -0.411000 -0.714900 0.565700
vn 0.411000 -0.714900 0.565700
vn -0.565700 -0.714900 0.411000
vn 0.216100 -0.714900 0.665000
vn 0.699200 -0.714900 0.000000
vn 0.216100 -0.714900 -0.665000
vn -0.565700 -0.714900 -0.411000
vn -0.665000 -0.714900 0.216100
vn 0.665000 -0.714900 0.216100
vn 0.411000 -0.714900 -0.565700
vn 0.191200 -0.785500 0.588500
vn 0.363700 -0.785500 0.500600
vn -0.500600 -0.785500 0.363700
vn -0.363700 -0.785500 0.500600
vn -0.500600 -0.785500 -0.363700
vn -0.588500 -0.785500 -0.191200
vn 0.191200 -0.785500 -0.588500
vn 0.000000 -0.785500 -0.618800
vn 0.618800 -0.785500 0.000000
vn 0.588500 -0.785500 -0.191200
vn -0.191200 -0.785500 -0.588500
vn 0.500600 -0.785500 0.363700
vn -0.191200 -0.785500 0.588500
vn -0.618800 -0.785500 0.000000
vn 0.500600 -0.785500 -0.363700
vn -0.588500 -0.785500 0.191200
vn -0.363700 -0.785500 -0.500600
vn 0.588500 -0.785500 0.191200
vn -0.000000 -0.785500 0.618800
vn 0.363700 -0.785500 -0.500600
vn 0.000000 -0.345000 0.938600
vn -0.259600 0.542400 0.799000
vn -0.892700 -0.345000 -0.290000
vn -0.551700 -0.345000 0.759400
vn -0.759400 -0.345000 0.551700
vn -0.938600 -0.345000 -0.000000
vn 0.938600 -0.345000 -0.000000
vn 0.840100 0.542400 -0.000000
vn 0.679700 0.542400 0.493800
vn 0.759400 -0.345000 0.551700
vn 0.551700 -0.345000 0.759400
vn 0.290000 -0.345000 0.892700
vn 0.000000 -0.345000 -0.938600
vn 0.290000 -0.345000 -0.892700
vn 0.551700 -0.345000 -0.759400
vn 0.679700 0.542400 -0.493800
vn -0.551700 -0.345000 -0.759400
vn -0.259600 0.542400 -0.799000
vn 0.759400 -0.345000 -0.551700
vn -0.679700 0.542400 -0.493800
vn -0.759400 -0.345000 -0.551700
vn -0.290000 -0.345000 -0.892700
vn 0.892700 -0.345000 -0.290000
vn 0.892700 -0.345000 0.290000
vn -0.892700 -0.345000 0.290000
vn -0.290000 -0.345000 0.892700
vn -0.000000 -0.701300 0.712900
vn 0.678000 -0.701300 0.220300
vn 0.712900 -0.701300 0.000000
vn -0.678000 -0.701300 0.220300
vn -0.419000 -0.701300 -0.576700
vn 0.419000 -0.701300 -0.576700
vn 0.220300 -0.701300 -0.678000
vn 0.220300 -0.701300 0.678000
vn -0.576700 -0.701300 0.419000
vn -0.419000 -0.701300 0.576700
vn -0.576700 -0.701300 -0.419000
vn -0.678000 -0.701300 -0.220300
vn 0.419000 -0.701300 0.576700
vn -0.712900 -0.701300 0.000000
vn 0.000000 -0.701300 -0.712900
vn -0.220300 -0.701300 -0.678000
vn 0.678000 -0.701300 -0.220300
vn -0.220300 -0.701300 0.678000
vn 0.576700 -0.701300 0.419000
vn 0.576700 -0.701300 -0.419000
vn -0.000000 -1.000000 0.000000
usemtl Go
s 1
f 90/1/1 17/2/2 19/3/3
f 3/4/4 33/5/5 5/6/6
f 7/7/7 9/8/8 86/9/9
f 5/6/6 33/5/5 7/7/7
f 82/10/10 1/11/11 3/4/4
f 7/7/7 33/5/5 9/8/8
f 87/12/12 11/13/13 13/14/14
f 9/8/8 33/5/5 11/13/13
f 11/13/13 33/5/5 13/14/14
f 94/15/15 25/16/16 27/17/17
f 15/18/18 17/2/2 90/1/1
f 13/14/14 33/5/5 15/18/18
f 9/8/8 11/13/13 87/12/12
f 15/18/18 33/5/5 17/2/2
f 92/19/19 21/20/20 23/21/21
f 17/2/2 33/5/5 19/3/3
f 88/22/22 13/14/14 15/18/18
f 19/3/3 33/5/5 21/20/20
f 21/20/20 33/5/5 23/21/21
f 84/23/23 5/6/6 7/7/7
f 23/21/21 25/16/16 94/15/15
f 23/21/21 33/5/5 25/16/16
f 95/24/24 27/17/17 29/25/25
f 25/16/16 33/5/5 27/17/17
f 40/26/26 101/27/27 100/28/28
f 27/17/17 33/5/5 29/25/25
f 31/29/29 34/30/30 98/31/31
f 29/25/25 33/5/5 31/29/29
f 31/29/29 33/5/5 34/30/30
f 40/26/26 33/5/5 1/11/11
f 36/32/32 38/33/33 100/28/28
f 34/30/30 33/5/5 36/32/32
f 96/34/34 29/25/25 31/29/29
f 36/32/32 33/5/5 38/33/33
f 40/26/26 1/11/11 82/10/10
f 38/33/33 33/5/5 40/26/26
f 34/30/30 36/32/32 99/35/35
f 19/3/3 21/20/20 92/19/19
f 6/36/36 8/37/37 45/38/38
f 14/39/39 16/40/40 49/41/41
f 12/42/42 14/39/39 48/43/43
f 10/44/44 12/42/42 47/45/45
f 39/46/46 41/47/47 61/48/48
f 37/49/49 39/46/46 60/50/50
f 35/51/51 37/49/49 59/52/52
f 10/44/44 46/53/53 45/38/38
f 16/40/40 18/54/54 50/55/55
f 26/56/56 54/57/57 53/58/58
f 24/59/59 53/58/58 52/60/60
f 20/61/61 22/62/62 52/60/60
f 20/61/61 51/63/63 50/55/55
f 28/64/64 55/65/65 54/57/57
f 30/66/66 32/67/67 57/68/68
f 2/69/69 42/70/70 61/48/48
f 4/71/71 6/36/36 44/72/72
f 30/66/66 56/73/73 55/65/65
f 2/69/69 4/71/71 43/74/74
f 32/67/67 35/51/51 58/75/75
f 60/50/50 61/48/48 81/76/76
f 45/38/38 65/77/77 64/78/78
f 57/68/68 77/79/79 76/80/80
f 52/60/60 53/58/58 73/81/81
f 48/43/43 49/41/41 69/82/82
f 42/70/70 62/83/83 81/76/76
f 50/55/55 70/84/84 69/82/82
f 45/38/38 46/53/53 66/85/85
f 58/75/75 78/86/86 77/79/79
f 54/57/57 74/87/87 73/81/81
f 59/52/52 79/88/88 78/86/86
f 55/65/65 75/89/89 74/87/87
f 51/63/63 71/90/90 70/84/84
f 47/45/45 67/91/91 66/85/85
f 43/74/74 63/92/92 62/83/83
f 60/50/50 80/93/93 79/88/88
f 55/65/65 56/73/73 76/80/80
f 51/63/63 52/60/60 72/94/94
f 48/43/43 68/95/95 67/91/91
f 44/72/72 64/78/78 63/92/92
f 125/96/96 124/97/97 64/78/78
f 129/98/98 128/99/99 68/95/95
f 73/81/81 133/100/100 132/101/101
f 77/79/79 137/102/102 136/103/103
f 141/104/104 140/105/105 80/93/93
f 76/80/80 136/103/103 135/106/106
f 64/78/78 124/97/97 123/107/107
f 68/95/95 128/99/99 127/108/108
f 72/94/94 132/101/101 131/109/109
f 140/105/105 139/110/110 79/88/88
f 131/109/109 130/111/111 70/84/84
f 135/106/106 134/112/112 74/87/87
f 123/107/107 122/113/113 62/83/83
f 67/91/91 127/108/108 126/114/114
f 139/110/110 138/115/115 78/86/86
f 66/85/85 126/114/114 125/96/96
f 70/84/84 130/111/111 129/98/98
f 74/87/87 134/112/112 133/100/100
f 138/115/115 137/102/102 77/79/79
f 116/116/116 96/34/34 97/117/117
f 101/27/27 82/10/10 102/118/118
f 97/117/117 98/31/31 118/119/119
f 98/31/31 99/35/35 119/120/120
f 119/120/120 99/35/35 100/28/28
f 100/28/28 101/27/27 121/121/121
f 111/122/122 91/123/123 92/19/19
f 92/19/19 93/124/124 113/125/125
f 93/124/124 94/15/15 114/126/126
f 94/15/15 95/24/24 115/127/127
f 90/1/1 91/123/123 111/122/122
f 95/24/24 96/34/34 116/116/116
f 106/128/128 86/9/9 87/12/12
f 107/129/129 87/12/12 88/22/22
f 108/130/130 88/22/22 89/131/131
f 104/132/132 84/23/23 85/133/133
f 109/134/134 89/131/131 90/1/1
f 85/133/133 86/9/9 106/128/128
f 82/10/10 83/135/135 103/136/136
f 83/135/135 84/23/23 104/132/132
f 4/137/71 103/136/136 104/132/132
f 2/138/69 102/118/118 103/136/136
f 8/139/37 105/140/137 106/128/128
f 109/134/134 110/141/138 18/142/54
f 6/143/36 104/132/132 105/140/137
f 108/130/130 109/134/134 16/144/40
f 12/145/42 107/129/129 108/130/130
f 10/146/44 106/128/128 107/129/129
f 28/147/64 115/127/127 116/116/116
f 18/142/54 110/141/138 111/122/122
f 26/148/56 114/126/126 115/127/127
f 24/149/59 113/125/125 114/126/126
f 22/150/62 112/151/139 113/125/125
f 20/152/61 111/122/122 112/151/139
f 120/153/140 121/121/121 41/154/47
f 119/120/120 120/153/140 39/155/46
f 118/119/119 119/120/120 37/156/49
f 32/157/67 117/158/141 118/119/119
f 41/154/47 121/121/121 102/118/118
f 30/159/66 116/116/116 117/158/141
f 125/96/96 126/114/114 146/160/142
f 122/113/113 142/161/143 161/162/144
f 129/98/98 130/111/111 150/163/145
f 133/100/100 134/112/112 154/164/146
f 138/115/115 158/165/147 157/166/148
f 124/97/97 125/96/96 145/167/149
f 136/103/103 137/102/102 157/166/148
f 140/105/105 141/104/104 161/162/144
f 129/98/98 149/168/150 148/169/151
f 133/100/100 153/170/152 152/171/153
f 123/107/107 124/97/97 144/172/154
f 132/101/101 152/171/153 151/173/155
f 136/103/103 156/174/156 155/175/157
f 139/110/110 140/105/105 160/176/158
f 128/99/99 148/169/151 147/177/159
f 122/113/113 123/107/107 143/178/160
f 126/114/114 127/108/108 147/177/159
f 130/111/111 131/109/109 151/173/155
f 134/112/112 135/106/106 155/175/157
f 139/110/110 159/179/161 158/165/147
f 145/167/149 162/180/162 144/172/154
f 161/162/144 162/180/162 160/176/158
f 149/168/150 162/180/162 148/169/151
f 153/170/152 162/180/162 152/171/153
f 157/166/148 162/180/162 156/174/156
f 144/172/154 162/180/162 143/178/160
f 156/174/156 162/180/162 155/175/157
f 160/176/158 162/180/162 159/179/161
f 148/169/151 162/180/162 147/177/159
f 152/171/153 162/180/162 151/173/155
f 143/178/160 162/180/162 142/161/143
f 151/173/155 162/180/162 150/163/145
f 155/175/157 162/180/162 154/164/146
f 159/179/161 162/180/162 158/165/147
f 147/177/159 162/180/162 146/160/142
f 146/160/142 162/180/162 145/167/149
f 150/163/145 162/180/162 149/168/150
f 154/164/146 162/180/162 153/170/152
f 158/165/147 162/180/162 157/166/148
f 142/161/143 162/180/162 161/162/144
f 83/135/135 3/4/4 5/6/6
f 1/11/11 33/5/5 3/4/4
f 62/83/83 122/113/113 141/104/104
f 91/123/123 90/1/1 19/3/3
f 85/133/133 7/7/7 86/9/9
f 83/135/135 82/10/10 3/4/4
f 88/22/22 87/12/12 13/14/14
f 95/24/24 94/15/15 27/17/17
f 89/131/131 15/18/18 90/1/1
f 86/9/9 9/8/8 87/12/12
f 93/124/124 92/19/19 23/21/21
f 89/131/131 88/22/22 15/18/18
f 85/133/133 84/23/23 7/7/7
f 93/124/124 23/21/21 94/15/15
f 96/34/34 95/24/24 29/25/25
f 38/33/33 40/26/26 100/28/28
f 97/117/117 31/29/29 98/31/31
f 99/35/35 36/32/32 100/28/28
f 97/117/117 96/34/34 31/29/29
f 101/27/27 40/26/26 82/10/10
f 98/31/31 34/30/30 99/35/35
f 91/123/123 19/3/3 92/19/19
f 44/72/72 6/36/36 45/38/38
f 48/43/43 14/39/39 49/41/41
f 47/45/45 12/42/42 48/43/43
f 46/53/53 10/44/44 47/45/45
f 60/50/50 39/46/46 61/48/48
f 59/52/52 37/49/49 60/50/50
f 58/75/75 35/51/51 59/52/52
f 8/37/37 10/44/44 45/38/38
f 49/41/41 16/40/40 50/55/55
f 24/59/59 26/56/56 53/58/58
f 22/62/62 24/59/59 52/60/60
f 51/63/63 20/61/61 52/60/60
f 18/54/54 20/61/61 50/55/55
f 26/56/56 28/64/64 54/57/57
f 56/73/73 30/66/66 57/68/68
f 41/47/47 2/69/69 61/48/48
f 43/74/74 4/71/71 44/72/72
f 28/64/64 30/66/66 55/65/65
f 42/70/70 2/69/69 43/74/74
f 57/68/68 32/67/67 58/75/75
f 80/93/93 60/50/50 81/76/76
f 44/72/72 45/38/38 64/78/78
f 56/73/73 57/68/68 76/80/80
f 72/94/94 52/60/60 73/81/81
f 68/95/95 48/43/43 69/82/82
f 61/48/48 42/70/70 81/76/76
f 49/41/41 50/55/55 69/82/82
f 65/77/77 45/38/38 66/85/85
f 57/68/68 58/75/75 77/79/79
f 53/58/58 54/57/57 73/81/81
f 58/75/75 59/52/52 78/86/86
f 54/57/57 55/65/65 74/87/87
f 50/55/55 51/63/63 70/84/84
f 46/53/53 47/45/45 66/85/85
f 42/70/70 43/74/74 62/83/83
f 59/52/52 60/50/50 79/88/88
f 75/89/89 55/65/65 76/80/80
f 71/90/90 51/63/63 72/94/94
f 47/45/45 48/43/43 67/91/91
f 43/74/74 44/72/72 63/92/92
f 65/77/77 125/96/96 64/78/78
f 69/82/82 129/98/98 68/95/95
f 72/94/94 73/81/81 132/101/101
f 76/80/80 77/79/79 136/103/103
f 81/76/76 141/104/104 80/93/93
f 75/89/89 76/80/80 135/106/106
f 63/92/92 64/78/78 123/107/107
f 67/91/91 68/95/95 127/108/108
f 71/90/90 72/94/94 131/109/109
f 80/93/93 140/105/105 79/88/88
f 71/90/90 131/109/109 70/84/84
f 75/89/89 135/106/106 74/87/87
f 63/92/92 123/107/107 62/83/83
f 66/85/85 67/91/91 126/114/114
f 79/88/88 139/110/110 78/86/86
f 65/77/77 66/85/85 125/96/96
f 69/82/82 70/84/84 129/98/98
f 73/81/81 74/87/87 133/100/100
f 78/86/86 138/115/115 77/79/79
f 117/158/141 116/116/116 97/117/117
f 121/121/121 101/27/27 102/118/118
f 117/158/141 97/117/117 118/119/119
f 118/119/119 98/31/31 119/120/120
f 120/153/140 119/120/120 100/28/28
f 120/153/140 100/28/28 121/121/121
f 112/151/139 111/122/122 92/19/19
f 112/151/139 92/19/19 113/125/125
f 113/125/125 93/124/124 114/126/126
f 114/126/126 94/15/15 115/127/127
f 110/141/138 90/1/1 111/122/122
f 115/127/127 95/24/24 116/116/116
f 107/129/129 106/128/128 87/12/12
f 108/130/130 107/129/129 88/22/22
f 109/134/134 108/130/130 89/131/131
f 105/140/137 104/132/132 85/133/133
f 110/141/138 109/134/134 90/1/1
f 105/140/137 85/133/133 106/128/128
f 102/118/118 82/10/10 103/136/136
f 103/136/136 83/135/135 104/132/132
f 6/143/36 4/137/71 104/132/132
f 4/137/71 2/138/69 103/136/136
f 10/146/44 8/139/37 106/128/128
f 16/144/40 109/134/134 18/142/54
f 8/139/37 6/143/36 105/140/137
f 14/181/39 108/130/130 16/144/40
f 14/181/39 12/145/42 108/130/130
f 12/145/42 10/146/44 107/129/129
f 30/159/66 28/147/64 116/116/116
f 20/152/61 18/142/54 111/122/122
f 28/147/64 26/148/56 115/127/127
f 26/148/56 24/149/59 114/126/126
f 24/149/59 22/150/62 113/125/125
f 22/150/62 20/152/61 112/151/139
f 39/155/46 120/153/140 41/154/47
f 37/156/49 119/120/120 39/155/46
f 35/182/51 118/119/119 37/156/49
f 35/182/51 32/157/67 118/119/119
f 2/138/69 41/154/47 102/118/118
f 32/157/67 30/159/66 117/158/141
f 145/167/149 125/96/96 146/160/142
f 141/104/104 122/113/113 161/162/144
f 149/168/150 129/98/98 150/163/145
f 153/170/152 133/100/100 154/164/146
f 137/102/102 138/115/115 157/166/148
f 144/172/154 124/97/97 145/167/149
f 156/174/156 136/103/103 157/166/148
f 160/176/158 140/105/105 161/162/144
f 128/99/99 129/98/98 148/169/151
f 132/101/101 133/100/100 152/171/153
f 143/178/160 123/107/107 144/172/154
f 131/109/109 132/101/101 151/173/155
f 135/106/106 136/103/103 155/175/157
f 159/179/161 139/110/110 160/176/158
f 127/108/108 128/99/99 147/177/159
f 142/161/143 122/113/113 143/178/160
f 146/160/142 126/114/114 147/177/159
f 150/163/145 130/111/111 151/173/155
f 154/164/146 134/112/112 155/175/157
f 138/115/115 139/110/110 158/165/147
f 84/23/23 83/135/135 5/6/6
f 81/76/76 62/83/83 141/104/104
